<?xml version="1.0" encoding="UTF-8"?>
<svg id="Capa_1" data-name="Capa 1" xmlns="http://www.w3.org/2000/svg" viewBox="0 0 421.59 182.99">
  <defs>
    <style>
      .cls-1 {
        fill: #001f3e;
      }
    </style>
  </defs>
  <path class="cls-1" d="M146.25,1l34,15.82,1.28,1.43c-4.99,4-10.47,7.32-15.69,10.98-5.63,3.95-12.66,9.85-18.55,13.12-1.93,1.07-2.81,1.07-4.74,0-5.4-2.99-12.61-8.58-17.92-12.28-4.48-3.12-9.62-6.44-13.89-9.72-1.1-.85-3.58-2.29-1.74-3.43,11.3-5.49,22.93-10.34,34.25-15.74,1.1-.52,1.94-2.28,2.99-.19Z"/>
  <path class="cls-1" d="M142.25,102.57c1.27-.15,4.88.04,6.07.33,1.24.31,2.18,1.84,2.57,2.98l6.03,35.62c-.94,9.58-5,19.09-7.83,28.29-1.14,3.7-1.89,7.72-3.18,11.4-.4,1.13-1.03,2.84-1.87.96-2.05-7.26-4.17-14.51-6.39-21.72-1.63-5.28-4.34-10.53-4.7-16.12-.44-6.78,2.2-15.8,3.4-22.66.88-5.03,1.17-12.25,2.6-16.83.55-1.75,1.65-2.04,3.31-2.24Z"/>
  <path class="cls-1" d="M92.67,17.76c-7.82,3.81-15.71,7.52-23.49,11.41-7.7,3.85-15.67,8.45-23.48,11.93-.67.3-2.66,1.45-2.98.41.11-2.68.57-5.62.67-8.26.2-5.12-.02-10.52.34-15.63.14-2.04.3-4.74,1.72-6.26,3.27-3.52,9.41-6.42,12.95-9.96,2.31-.94,2.88.24,4.47.91,7.91,3.36,16.54,7.62,24.22,11.53.77.39,5.26,2.64,5.44,2.89.24.33.17.68.15,1.04Z"/>
  <path class="cls-1" d="M198.93,17.76c-.12-.18-.03-.79.15-1.04s4.69-2.51,5.44-2.89c8.39-4.28,17.14-7.94,25.46-12.38l2.72-.26,13.06,9.86c.97,1.08,1.6,1.95,1.77,3.43.68,5.84.39,12.78.68,18.76.13,2.71.54,5.54.67,8.26l-1.09.51-48.85-24.24Z"/>
  <path class="cls-1" d="M84.92,103.97c1.4,1.26,2.95,3.53,4.29,4.91,8.77,8.96,17.72,17.83,26.26,27.02,3.37,3.63,8.75,8.65,10.79,12.99,2.83,6.01,6.22,15.84,7.9,22.3.52,2-.23,1.65-1.64.68-5.3-3.66-12.91-11.22-17.99-15.77-4.53-4.06-9.57-8.28-13.89-12.5-5.54-5.42-9.73-12.9-13.82-19.5s-8.02-13.71-12.16-20.48c-.11-.55.38-.72.82-.8,3.14-.53,6.97-1.05,9.42,1.16Z"/>
  <path class="cls-1" d="M214.37,102.81c.83.23.32,1.33.08,1.82-1.78,3.69-5.18,8.66-7.41,12.38-6.52,10.86-11.97,20.98-21.36,29.67-8.24,7.63-17.44,15.65-25.99,22.95-.72.61-4.16,3.55-4.69,3.65-.91.16-.49-.88-.37-1.41,1.62-6.87,6.27-14.49,7.91-21.6,9.71-13.78,22.92-25.65,34.63-37.91,2.33-2.44,5-6.43,7.88-8.11.33-.19,2.9-1.44,3.07-1.44,1.41,0,5.24-.28,6.25,0Z"/>
  <path class="cls-1" d="M355.98,35.7c-2.42-2.39-4.03-8.76-6.57-9.57-3.56-1.13-9.73-.04-13.5,0-9.6.09-19.25.09-28.85,0-3.06-.03-6.86-1.24-9.32,1.41-3.14,4.02-5.4,10.62-8.46,14.45-.67.84-1.6,1.45-2.5,2.01-7.47.33-14.95.1-22.43.14-.9,0-1.76.37-2.75.38-2.07.02-4.1-.64-6.2-.35l-1.62-26.04,1.56.7,24.51,20.97c1.74,1.37,5,1.21,6.57-.32,2.12-3.64,4.37-7.21,6.54-10.82,2.18-3.63,1.91-5.93,7.16-6.38,14.86-1.28,31.54,1.04,46.55.03,5.26-.35,4.2-1.89,6.28-5.53,8.73-15.28,31-7.88,29.31,9.52-1.15,11.9-17.96,17.61-26.28,9.4ZM378.47,23.93c0-6.5-5.27-11.76-11.76-11.76s-11.76,5.27-11.76,11.76,5.27,11.76,11.76,11.76,11.76-5.27,11.76-11.76Z"/>
  <path class="cls-1" d="M255.34,69.14c-.81-.25-.75-2.56.17-2.95l54.26-.25c1.24-.19,2.09-1.1,2.83-2.03,1.9-2.39,5.19-9.95,7.18-11.22.73-.47,1.91-.69,2.72-1.09,11.77.27,23.88-.75,35.57-.46,1.85.04,3.41.56,4.53,2.07,2.85,3.83,4.82,10.39,7.55,14.32.98,1.42,2.2,2.13,3.93,2.32,2.92.31,9.95.33,12.85,0,1.03-.12,1.68-.31,2.45-1.02,1.12-1.05,1.65-3.81,2.59-5.39,6.05-10.19,21.38-9.93,27.02.4,1.65,3.03,2.97,6.17,2.51,9.68-.11.8-3.03,6.55-3.69,7.42-6.24,8.3-19.49,8.57-25.22-.43-1.54-2.42-1.75-5.56-4.34-7.11-5.36-.61-11.71.57-16.95-.06-1.62-.19-3.13-1.66-3.92-3.02-2.21-3.76-3.97-9.43-6.51-12.93-1.01-1.39-2.18-2.11-3.89-2.36l-33.78.41c-.62.45-1.58.94-2.07,1.5-1.94,2.18-3.57,6.72-5.69,9.32-.5.61-2.94,2.91-3.51,2.91h-56.59ZM417.13,71.3c0-6.5-5.27-11.76-11.77-11.76s-11.77,5.27-11.77,11.76,5.27,11.76,11.77,11.76,11.77-5.27,11.77-11.76Z"/>
  <path class="cls-1" d="M255.34,121.9c-.81-.25-.79-2.89.17-3.3,18.53-.45,37.17,0,55.74-.16,2.48-.02,4.04-.79,6.75.16,3.76,1.32,8.82,11.81,11.82,15.26,1.36,1.57,1.88,1.79,3.97,1.93,7.55.53,15.85-.29,23.47-.17,2.24-1.15,2.75-3.73,4-5.71,11.2-17.74,36.65-1.63,26.88,15.76-5.35,9.53-20.28,10.15-26.19,1.18-1.62-2.47-1.7-5.68-4.35-7.1l-25.89-.15c-2.26-.32-3.56-1.8-4.83-3.5-2.25-3.02-6.55-11.32-9.05-13.17-.26-.19-1.63-1.04-1.74-1.04h-60.76ZM386.33,137.91c0-6.5-5.27-11.76-11.77-11.76s-11.77,5.27-11.77,11.76,5.27,11.76,11.77,11.76,11.77-5.27,11.77-11.76Z"/>
  <path class="cls-1" d="M318.88,93.44c2.58-.52,3.13-4.03,4.2-5.86,6.96-11.89,24.4-10.24,28.44,3.07,5.6,18.42-20.28,28.07-28.25,12.62-1.48-2.86-1.29-5.57-5.53-6.28l-62.24-.25c-1.13-.55-.8-3.3-.17-3.3h63.54ZM348.4,95.33c0-6.49-5.26-11.75-11.75-11.75s-11.75,5.26-11.75,11.75,5.26,11.75,11.75,11.75,11.75-5.26,11.75-11.75Z"/>
  <path class="cls-1" d="M158.47,44.5c-1.09-.27.21-1.26.55-1.53,4.37-3.55,10.07-6.81,14.76-10.06,4.37-3.02,8.65-6.3,12.99-9.4.57-.28,1.44-.39,1.91.17,2.12,5.05,4.23,10.11,6.35,15.16.26.61,3.23,5.66,1.63,5.66h-38.19Z"/>
  <path class="cls-1" d="M1.02,44.5l.51-1.4c2.79-1.88,5.6-3.86,8.26-5.9,7.25-5.57,14.75-11.99,22.31-16.99,1.61-1.06,2.93-3.26,2.62.88-.4,5.29-.77,10.64-1.07,15.94-.09,1.55.69,7.48-1.9,7.48H1.02Z"/>
  <path class="cls-1" d="M92.85,44.5c-.49-.15-.67-.96-.37-1.4,3.24-6.03,5.29-13.34,8.47-19.29.46-.87.91-.56,1.78-.3,8.85,7.02,18.75,12.67,27.76,19.45.35.27,1.67,1.54.54,1.54h-38.19Z"/>
  <path class="cls-1" d="M150.14,52.48h46.52c.6,0,.53,1.22.37,1.75-.17.56-3.19,5.98-3.5,6.23-.33.27-.57.41-1.02.37l-40.65-.02c-2.01-.91-1.68-2.88-1.99-4.61-.24-1.37-1.43-2.56.25-3.72Z"/>
  <path class="cls-1" d="M92.68,52.83h47.39c.2,0,.51.52.52.84,0,.27-1.13,4.93-1.31,5.3-.31.64-.94,1.19-1.47,1.65l-40.43.17c-2.26-.44-4.76-5.76-4.69-7.98Z"/>
  <path class="cls-1" d="M214.89.07c.28,1.23-1.2,1.72-2.13,2.21-5.28,2.81-12.15,5.93-17.67,8.37-1.35.6-4.78,2.29-6.04,2.24-.95-.04-4.25-1.74-5.37-2.28-5.39-2.56-11.4-5.53-16.66-8.34-.32-.17-3.79-2.21-1.95-2.21h49.82Z"/>
  <path class="cls-1" d="M75.32.07h49.82c.6,0,.72,1.32-.28,1.46-7.56,2.8-15.41,8.22-22.92,10.75-3.1,1.05-4.91-.39-7.76-1.73-6.23-2.92-12.15-6.57-18.49-9.28l-.37-1.19Z"/>
  <path class="cls-1" d="M80.76,75.97c-2.75,3.3-9.13-.03-6.28-4.72.94-1.55,3.98-1.75-.1-3.42-14.13-5.76-17.01,23.31-4.01,25.52,2.29.39,5.67-.62,7.35-2.21.85-.81,1.85-3.19,2.65-3.28,2.7-.3-.23,4.11-.93,4.99-5.55,6.99-17.24,4.72-21.75-2.43-8.08-12.81,3.47-30.86,18.33-24.23,3.18,1.42,7.63,6.31,4.75,9.78Z"/>
  <path class="cls-1" d="M87.12,60.81h-32.81c-.92,0-6.56-5.63-7.84-6.4-.66-.74-.21-1.52.62-1.86l36.2.11c1.97.89,3.44,6.12,3.83,8.15Z"/>
  <path class="cls-1" d="M243.36,52.48c.1.54-.05.8-.33,1.23-1.43,2.21-5.45,4.8-7.13,7.1h-32.98c-.21,0-.51-.56-.54-.87-.07-.86,3.22-7.46,4.01-7.46h36.98Z"/>
  <path class="cls-1" d="M234.67,43.48c1.13,1.7-1.83,1.01-2.23,1.01-7.74-.17-16.84.73-24.33.03-1.37-.13-2.72-.47-3.43-1.78-1.88-3.44-4.13-9.01-5.65-12.75-.24-.6-1.43-3.58-1.15-3.88l36.79,17.37Z"/>
  <path class="cls-1" d="M54.83,44.5c-.11-.77.61-1.15,1.15-1.46,10.66-6.1,23.19-10.55,33.91-16.78.54-.11,1.92-.6,1.77.37-1.87,5.65-4.85,11.01-7,16.61-.18.37-1.26,1.26-1.52,1.26h-28.3Z"/>
  <path class="cls-1" d="M121.49,96.56c-.06-1.42.87-2.18,1.04-3.64.26-2.24.26-7.81,0-10.07-.59-5.21-5.8-4.2-6.51.44-.42,2.76-.33,8.8.59,11.37.11.3,1.28,1.9.18,1.9h-7.99c-1.1,0,.44-2.53.53-3.29.32-2.62.32-10.23,0-12.86-.17-1.41-1.83-2.48-.47-3.22,1.46.35,6.1-2.26,6.89-1.11.24.36.13,1.62.69,1.74s2.26-1.46,3.2-1.66c1.73-.36,4.94-.27,6.46.67,5.06,3.16,1.93,12.56,3.52,17.65.1.33,1.58,2.08.35,2.08h-8.51Z"/>
  <path class="cls-1" d="M134.17,96.56c-1.19-.34.16-1.53.35-2.08.79-2.29.84-11.09.53-13.72-.19-1.58-2.43-3.18-.51-3.62,1.2-.28,5.18-1.42,5.9-1.43,1.45,0,1.24.93,1.2,2.1,1.45.26,2.17-1.39,3.37-1.66,4.25-.97,8.47.42,9.44,5,.89,4.19-.39,9.01.47,12.72.11.47,1.62,2.69.44,2.69h-7.99c-1.15,0,.22-2.02.34-2.44.78-2.67,1.03-11.1-.43-13.44-1.84-2.93-5.23-.45-5.6,2.19-.3,2.1-.3,8.27-.04,10.39.17,1.4,1.25,1.92,1.05,3.29-2.22-.4-6.58.54-8.51,0Z"/>
  <path class="cls-1" d="M39.56,60.81H9.18c-1.14,0-5.39-3.68-6.43-4.68-.39-.37-4.05-3.65-2.25-3.65h32.98c.44,0,2.44,1.54,2.75,2.11l3.32,6.22Z"/>
  <path class="cls-1" d="M179.42,93.02c.22-.13.2-1.3,1.27-.97,1.59.49-.59,3.61-1.48,4.15-1.42.86-4.32,1.06-5.85.39-.92-.4-1.22-1.65-1.74-1.75-.38-.07-2.48,1.87-4.12,2.06-3.56.41-7.84.1-7.84-4.34,0-5.66,6.98-5.17,10.79-6.59,1.46-.54,1.12-2.05,1.03-3.47-.13-1.98-.82-4.78-3.27-4.71-.97.03-4.93,1.53-3.42,2.45.77.47,1.62.39,2.03,1.72,1.55,4.99-7.39,6.35-6.45-.17.86-5.98,12.19-7.57,15.81-3.97,2.26,2.24,2.02,8.88,1.92,11.99-.02.79-1.05,4.56,1.32,3.21ZM171.13,87.9c-.18-.12-2.82.61-3.19.78-1.67.77-2.32,3.77-.62,4.59,3.14,1.52,5.21-4.39,3.8-5.37Z"/>
  <path class="cls-1" d="M184.51,96.56c-1-.28.4-2.23.52-3.3.39-3.57-.09-8.09-.02-11.81.02-.72.7-2.79-.03-3.24-.5-.31-3.22.52-2.7-1.23.31-1.04,2.55-.69,2.95-1.22.43-.58-.22-2.31-.17-3.27.06-1.36.86-3.83,1.71-4.91,3.31-4.21,15.19-3.62,14.25,3.49-.41,3.07-5.94,3.09-6.52.59-.72-3.09,1.62-3.61,1.63-4.08.02-1.17-3.55-.58-4.09,1.81-.21.94-.55,4.59-.44,5.5.04.35.16,1.2.54,1.2h6.6c1.22,0,1.22,2.08,0,2.08h-6.77c-.39,3.94-.65,8.7-.36,12.68.07.92.28,2.43.52,3.3.07.25,1.72,2.41.36,2.41-1.74,0-6.74.35-7.99,0Z"/>
  <path class="cls-1" d="M103.09,92.57c.44,1.53,2.1-.53,2.6-.53,2.26-.02-.67,4.24-2.23,4.72-2.26.7-5.23.36-6.44-1.85-3.75,2.76-12.2,3.93-12.01-2.69.17-5.86,7.4-4.54,11.04-6.31,1.61-.78,1.07-8.08-2.51-8.1-.74,0-3.35.94-3.62,1.6-.46,1.09.88.86,1.52,1.55,4.63,5.01-8.34,8.58-5.45-.27.66-2.01,4.14-4.3,6.19-4.58,1.22-.17,5.39-.22,6.48.05,1.38.35,4.42,3.13,4.42,4.6v11.8ZM95.7,87.95c-.18,0-2.41.7-2.65.82-1.53.82-2.12,3.69-.36,4.48,3.42,1.53,5.63-5.37,3.01-5.3Z"/>
  <path class="cls-1" d="M249.96,60.81c-.35-.33,2.83-5.2,3.33-5.87.75-1.01,1.75-2.67,3.08-2.48l26.6.17c2.16.74.92,5.44-.13,6.68-.14.17-2.02,1.5-2.15,1.5h-30.73Z"/>
  <path class="cls-1" d="M158.82,102.81h15.62c.46,0,.72,1.3.37,1.75-4.16,7.92-7.07,16.45-10.89,24.52-.69,1.45-1.43,2.41-2.06.19-.58-2.04-.47-4.7-.82-6.82-.81-4.95-2.04-10.01-2.7-15-.11-.87-.73-4.64.48-4.64Z"/>
  <path class="cls-1" d="M114.55,102.81h16.84c1.25,0-.29,4.65-.43,5.47-1.08,6.66-1.76,13.76-3.29,20.31-.39,1.67-1.31,1.57-2.15.22l-10.8-24.61-.16-1.4Z"/>
  <path class="cls-1" d="M232.17,82.94c-.91,1.05-5.05.69-5.47-1.49-.36-1.87,2.4-4.43-1.76-3.48-1.9.43-2.93,1.79-2.34,3.77.69,2.34,8.28,2.58,10.01,5.62,2.3,4.05-.86,8.74-5.13,9.47-3.69.63-14.08.21-12.09-5.84.74-2.26,5.67-2.14,5.77.9.03.93-.99,2.84.2,3.24,2.03.68,6.24-1.43,5.16-3.76-1.23-2.64-9.68-2.34-10.25-7.11-.31-2.59-.07-4.95,2.11-6.58,2.98-2.23,9.89-2.39,12.8,0,1.38,1.13,2.11,3.96.98,5.27Z"/>
  <path class="cls-1" d="M189.32,109.53c-4.42,4.69-9.35,10.76-13.99,14.99-.89.81-2.11,1.28-1.49-.43,3.49-5.85,5.39-13.94,8.84-19.62.25-.41.55-.87.93-1.15,1.3-.96,6.56-.42,8.54-.48,1.21-.04,3.7-1.18,2.61,1.22-1.83,1.81-3.69,3.62-5.45,5.48Z"/>
  <path class="cls-1" d="M105.35,102.46c.12.03,1.57,1.51,1.71,1.76,2.09,3.71,6.17,14.17,7.34,18.35.14.48.5,1.2-.38,1.07l-19.88-19.86-.08-1.32h11.28Z"/>
  <path class="cls-1" d="M209.26,75.45c.82-.17,1.32.42,1.46,1.16.49,5.13-.62,11.32,0,16.31.14,1.13.83,1.99,1.03,3.09-.3,1.23-3.51.2-4.32.2-1.01,0-4.23,1.21-4.36-.52-.07-.91.92-1.93,1.07-3.11.3-2.41.3-9.4,0-11.82-.15-1.24-1.33-2.17-1.03-3.08.19-.55,4.09-1.37,4.99-1.62.45-.13.86-.55,1.16-.61Z"/>
  <path class="cls-1" d="M55.92,103.81c-.12-.34-.12-.72.1-1.01.56-.74,7.06-.31,8.25.12,2.32.85,5.34,6.34,6.67,8.61.57.98,4.46,7.66,4.38,8.11-.18,1.04-1.95-.62-2.25-.87-5.81-4.84-11.04-10.45-17.14-14.96Z"/>
  <path class="cls-1" d="M233.12,102.81c.09.02.68.51.35.69l-18.39,16.68c-1.05.11-1.07-.11-.73-1.08.83-2.33,8.08-13.85,9.93-15.06.28-.18,2.45-1.23,2.59-1.23,1.51,0,5.08-.29,6.25,0Z"/>
  <path class="cls-1" d="M205.76,65.4c3.52-.8,6.25.74,5.63,4.59-.65,4.06-9.43,3.67-7.88-2.33.22-.83,1.37-2.07,2.24-2.27Z"/>
</svg>