<svg width="317" height="346" viewBox="0 0 317 346" fill="none" xmlns="http://www.w3.org/2000/svg">
<path d="M188.169 1.70994C161.415 13.1586 164.516 71.3243 177.066 96.2806C182.29 106.67 194.942 115.324 212.513 112.189C231.29 108.006 235.914 92.5132 237.89 78.3018C243.442 42.3243 213.72 -9.22328 188.169 1.70994Z" fill="white"/>
<path d="M272.42 59.2383C251.834 60.4036 245.716 143.179 273.161 165.653C283.148 173.832 304.956 169.591 311.18 158.281C328.274 127.222 296.834 57.8564 272.42 59.2383Z" fill="white"/>
<path d="M80.7389 344.746C106.345 350.092 131.759 330.425 157.916 330.546C182.827 330.661 206.812 349.391 231.286 344.746C251.098 340.986 270.096 328.312 282.34 312.288C294.089 296.913 299.692 276.188 299.521 256.838C299.36 238.528 293.91 218.854 282.34 204.66C269.942 189.451 246.467 187.787 231.286 175.354C219.113 165.385 213.373 148.425 200.18 139.853C187.81 131.815 172.666 126.965 157.916 126.726C141.436 126.458 124.093 130.916 110.243 139.853C97.314 148.195 92.385 165.298 80.7389 175.354C66.5272 187.626 44.4669 190.082 32.6326 204.66C21.0044 218.984 14.3392 238.389 14.1669 256.838C13.9851 276.319 20.8529 296.772 32.6326 312.288C44.3294 327.695 61.8029 340.793 80.7389 344.746Z" fill="white"/>
<path d="M43.6371 59.5527C64.2229 60.718 70.3413 143.493 42.8968 165.967C32.909 174.146 11.1013 169.905 4.87689 158.595C-12.2169 127.536 19.223 58.1708 43.6371 59.5527Z" fill="white"/>
<path d="M126.496 1.60366C153.251 13.0523 150.149 71.218 137.6 96.1743C132.375 106.563 119.723 115.218 102.153 112.082C83.3753 107.9 78.751 92.4069 76.7755 78.1955C71.2229 42.218 100.946 -9.32957 126.496 1.60366Z" fill="white"/>
</svg>
